<?xml version="1.0" encoding="UTF-8" standalone="no"?>
<svg
   xmlns:osb="http://www.openswatchbook.org/uri/2009/osb"
   xmlns:dc="http://purl.org/dc/elements/1.1/"
   xmlns:cc="http://creativecommons.org/ns#"
   xmlns:rdf="http://www.w3.org/1999/02/22-rdf-syntax-ns#"
   xmlns:svg="http://www.w3.org/2000/svg"
   xmlns="http://www.w3.org/2000/svg"
   xmlns:sodipodi="http://sodipodi.sourceforge.net/DTD/sodipodi-0.dtd"
   xmlns:inkscape="http://www.inkscape.org/namespaces/inkscape"
   sodipodi:docname="gothic_arch_top.svg"
   inkscape:version="1.0 (4035a4fb49, 2020-05-01)"
   id="svg8"
   version="1.1"
   viewBox="0 0 70.643747 41.01042"
   height="155"
   width="267">
  <defs
     id="defs2">
    <linearGradient
       osb:paint="solid"
       id="linearGradient3115">
      <stop
         id="stop3113"
         offset="0"
         style="stop-color:#ffffff;stop-opacity:1;" />
    </linearGradient>
    <filter
       id="filter2923"
       style="color-interpolation-filters:sRGB"
       inkscape:label="Opacity">
      <feColorMatrix
         id="feColorMatrix2919"
         result="colormatrix"
         in="SourceGraphic"
         values="1 0 0 0 0 0 1 0 0 0 0 0 1 0 0 -2.40964 2.3494 -7.46988 5.66265 0 " />
      <feComposite
         id="feComposite2921"
         result="fbSourceGraphic"
         operator="in"
         in2="SourceGraphic"
         in="colormatrix" />
      <feColorMatrix
         id="feColorMatrix2937"
         values="0 0 0 -1 0 0 0 0 -1 0 0 0 0 -1 0 0 0 0 1 0"
         in="fbSourceGraphic"
         result="fbSourceGraphicAlpha" />
      <feColorMatrix
         in="fbSourceGraphic"
         result="colormatrix"
         values="1 0 0 0 0 0 1 0 0 0 0 0 1 0 0 0 0 0 5 -1 "
         id="feColorMatrix2939" />
      <feComposite
         k4="0"
         k3="0"
         k1="0"
         result="composite"
         k2="0.473054"
         operator="arithmetic"
         id="feComposite2941"
         in2="colormatrix" />
    </filter>
  </defs>
  <sodipodi:namedview
     width="200px"
     inkscape:window-maximized="1"
     inkscape:window-y="-8"
     inkscape:window-x="-8"
     inkscape:window-height="1009"
     inkscape:window-width="1920"
     units="px"
     showgrid="true"
     inkscape:document-rotation="0"
     inkscape:current-layer="layer2"
     inkscape:document-units="px"
     inkscape:cy="165.75152"
     inkscape:cx="156.12858"
     inkscape:zoom="1.4142136"
     inkscape:pageshadow="2"
     inkscape:pageopacity="0.0"
     borderopacity="1.0"
     bordercolor="#666666"
     pagecolor="#ffffff"
     id="base">
    <inkscape:grid
       visible="true"
       snapvisiblegridlinesonly="true"
       enabled="false"
       spacingy="0.52916668"
       spacingx="0.52916668"
       originx="0"
       units="px"
       id="grid2927"
       type="xygrid" />
  </sodipodi:namedview>
  <metadata
     id="metadata5">
    <rdf:RDF>
      <cc:Work
         rdf:about="">
        <dc:format>image/svg+xml</dc:format>
        <dc:type
           rdf:resource="http://purl.org/dc/dcmitype/StillImage" />
        <dc:title></dc:title>
      </cc:Work>
    </rdf:RDF>
  </metadata>
  <g
     id="layer1"
     inkscape:groupmode="layer"
     inkscape:label="Warstwa 1" />
  <g
     style="display:inline"
     inkscape:label="3"
     id="layer4"
     inkscape:groupmode="layer" />
  <g
     style="display:inline"
     inkscape:label="2"
     id="layer3"
     inkscape:groupmode="layer" />
  <g
     inkscape:label="1"
     id="layer2"
     inkscape:groupmode="layer">
    <path
       sodipodi:nodetypes="cc"
       id="path3013"
       d="m 35.227231,7.3895716 c -4.760965,0 -6.413596,3.5834384 -6.137183,6.4440394 l -1.636581,0.994967 -0.767224,-0.958642 c 0,0 -0.162654,-0.826722 0.544052,-3.653543 0.706706,-2.8268229 7.996936,-4.017062 7.996936,-4.017062 z"
       style="fill:#ffffff;fill-opacity:1;stroke:#000000;stroke-width:0.743903;stroke-linecap:butt;stroke-linejoin:miter;stroke-miterlimit:4;stroke-dasharray:none;stroke-opacity:1" />
    <path
       id="path3027"
       d="M 26.686243,13.869936 C 18.532975,10.187815 12.273371,19.498318 15.63988,25.284509 l 0.762726,0.552318 0.886501,-1.286312 0.475052,-0.255803 c 0,0 -1.896946,-4.798157 1.227437,-7.17864 3.124382,-2.380484 5.914009,-1.469204 6.639314,-1.097254 0.725303,0.37195 0.502133,-0.185977 0.502133,-0.185977 l 1.320424,-1.004263 z"
       style="fill:#ffffff;fill-opacity:1;stroke:#000000;stroke-width:0.743903;stroke-linecap:butt;stroke-linejoin:miter;stroke-miterlimit:4;stroke-dasharray:none;stroke-opacity:1" />
    <path
       sodipodi:nodetypes="ccccssscccc"
       style="fill:#ffffff;fill-opacity:1;stroke:#000000;stroke-width:0.743903;stroke-linecap:butt;stroke-linejoin:miter;stroke-miterlimit:4;stroke-dasharray:none;stroke-opacity:1"
       d="M 15.63988,25.284509 C 6.7257409,24.528296 3.375463,36.610682 10.265443,40.839977 l 3.146898,0.136715 c 0,0 0.580483,-1.702996 -1.513718,-2.12543 -1.666458,-0.943169 -2.8195036,-1.984628 -2.9868816,-4.290719 -0.1673775,-2.306092 0.6881082,-3.793895 1.4134116,-4.742369 0.725303,-0.948472 2.306092,-1.989933 3.421942,-2.138714 1.115852,-0.14878 1.729569,-0.03718 1.729569,-0.03718 l 0.0064,-0.4506 0.9196,-1.354839 z"
       id="path3029" />
    <path
       id="path3035"
       d="M 35.227231,0.84324555 V 6.199331"
       style="fill:none;stroke:#000000;stroke-width:0.743903;stroke-linecap:butt;stroke-linejoin:miter;stroke-miterlimit:4;stroke-dasharray:none;stroke-opacity:1" />
    <path
       id="path3087"
       d="m 17.448002,15.386503 1.543594,1.729569"
       style="fill:none;stroke:#000000;stroke-width:0.743903;stroke-linecap:butt;stroke-linejoin:miter;stroke-miterlimit:4;stroke-dasharray:none;stroke-opacity:1" />
    <path
       id="path3093"
       d="m 9.1172666,30.965495 0.3616998,0.163806"
       style="fill:none;stroke:#000000;stroke-width:0.743903;stroke-linecap:butt;stroke-linejoin:miter;stroke-miterlimit:4;stroke-dasharray:none;stroke-opacity:1" />
    <path
       sodipodi:nodetypes="ccc"
       id="path3145"
       d="m 16.440636,27.752235 c 1.627949,1.262484 3.64915,-1.134633 1.750426,-2.546628 z"
       style="fill:#ffffff;fill-opacity:1;stroke:#000000;stroke-width:0.743903;stroke-linecap:butt;stroke-linejoin:miter;stroke-miterlimit:4;stroke-dasharray:none;stroke-opacity:1" />
    <path
       style="fill:#ffffff;fill-opacity:1;stroke:#000000;stroke-width:0.743903;stroke-linecap:butt;stroke-linejoin:miter;stroke-miterlimit:4;stroke-dasharray:none;stroke-opacity:1"
       d="m 26.839747,16.688329 c 1.128488,1.723544 3.819759,0.114663 2.483894,-1.838367 z"
       id="path3147"
       sodipodi:nodetypes="ccc" />
    <path
       style="fill:#ffffff;fill-opacity:1;stroke:#000000;stroke-width:0.743903;stroke-linecap:butt;stroke-linejoin:miter;stroke-miterlimit:4;stroke-dasharray:none;stroke-opacity:1"
       d="m 35.377134,7.3895716 c 4.760964,0 6.413597,3.5834384 6.137184,6.4440394 l 1.636578,0.994967 0.767227,-0.958642 c 0,0 0.162651,-0.826722 -0.544054,-3.653543 C 42.667363,7.3895701 35.377134,6.199331 35.377134,6.199331 Z"
       id="path3225"
       sodipodi:nodetypes="cc" />
    <path
       style="fill:#ffffff;fill-opacity:1;stroke:#000000;stroke-width:0.743903;stroke-linecap:butt;stroke-linejoin:miter;stroke-miterlimit:4;stroke-dasharray:none;stroke-opacity:1"
       d="m 43.918123,13.869936 c 8.153265,-3.682121 14.412865,5.628382 11.046359,11.414573 l -0.762729,0.552318 -0.886499,-1.286312 -0.475051,-0.255803 c 0,0 1.896947,-4.798157 -1.227436,-7.17864 -3.124382,-2.380484 -5.914012,-1.469204 -6.639311,-1.097254 -0.725303,0.37195 -0.502136,-0.185977 -0.502136,-0.185977 l -1.320424,-1.004263 z"
       id="path3227" />
    <path
       id="path3229"
       d="m 54.964482,25.284509 c 8.914137,-0.756213 12.264415,11.326173 5.374437,15.555468 l -3.146897,0.136715 c 0,0 -0.580481,-1.702996 1.513716,-2.12543 1.666459,-0.943166 2.819506,-1.984625 2.986881,-4.290717 0.167379,-2.306091 -0.688112,-3.793895 -1.413411,-4.742368 -0.725302,-0.948475 -2.306093,-1.989936 -3.421946,-2.138717 -1.115848,-0.14878 -1.729567,-0.03718 -1.729567,-0.03718 l -0.0064,-0.4506 -0.919598,-1.354839 z"
       style="fill:#ffffff;fill-opacity:1;stroke:#000000;stroke-width:0.743903;stroke-linecap:butt;stroke-linejoin:miter;stroke-miterlimit:4;stroke-dasharray:none;stroke-opacity:1"
       sodipodi:nodetypes="ccccssscccc" />
    <path
       style="fill:none;stroke:#000000;stroke-width:0.743903;stroke-linecap:butt;stroke-linejoin:miter;stroke-miterlimit:4;stroke-dasharray:none;stroke-opacity:1"
       d="M 35.377134,0.84324555 V 6.199331"
       id="path3231" />
    <path
       style="fill:none;stroke:#000000;stroke-width:0.743903;stroke-linecap:butt;stroke-linejoin:miter;stroke-miterlimit:4;stroke-dasharray:none;stroke-opacity:1"
       d="m 53.15636,15.386503 -1.543593,1.729569"
       id="path3233" />
    <path
       style="fill:none;stroke:#000000;stroke-width:0.743903;stroke-linecap:butt;stroke-linejoin:miter;stroke-miterlimit:4;stroke-dasharray:none;stroke-opacity:1"
       d="m 61.487095,30.965495 -0.3617,0.163806"
       id="path3235" />
    <path
       style="fill:#ffffff;fill-opacity:1;stroke:#000000;stroke-width:0.743903;stroke-linecap:butt;stroke-linejoin:miter;stroke-miterlimit:4;stroke-dasharray:none;stroke-opacity:1"
       d="M 54.163723,27.752235 C 52.535779,29.014719 50.514575,26.617602 52.4133,25.205607 Z"
       id="path3237"
       sodipodi:nodetypes="ccc" />
    <path
       sodipodi:nodetypes="ccc"
       id="path3239"
       d="m 43.764614,16.688329 c -1.128488,1.723544 -3.819757,0.114663 -2.483888,-1.838367 z"
       style="fill:#ffffff;fill-opacity:1;stroke:#000000;stroke-width:0.743903;stroke-linecap:butt;stroke-linejoin:miter;stroke-miterlimit:4;stroke-dasharray:none;stroke-opacity:1" />
    <path
       id="path2985"
       d="m 35.227231,0.84324442 c 0,0 -32.1365105,12.08275258 -32.1365105,39.87307858 h 4.3969057 c 0,0 -1.9420297,-21.721899 27.7396048,-34.516992 z"
       style="display:inline;fill:#ffffff;fill-opacity:1;stroke:#000000;stroke-width:0.743903;stroke-linecap:butt;stroke-linejoin:miter;stroke-miterlimit:4;stroke-dasharray:none;stroke-opacity:1" />
    <path
       id="path3033"
       d="m 22.372903,7.8207385 2.78789,3.8399245"
       style="display:inline;fill:none;stroke:#000000;stroke-width:0.743903;stroke-linecap:butt;stroke-linejoin:miter;stroke-miterlimit:4;stroke-dasharray:none;stroke-opacity:1" />
    <path
       id="path3037"
       d="m 11.852558,17.446852 3.524315,2.787893"
       style="display:inline;fill:none;stroke:#000000;stroke-width:0.743903;stroke-linecap:butt;stroke-linejoin:miter;stroke-miterlimit:4;stroke-dasharray:none;stroke-opacity:1" />
    <path
       id="path3039"
       d="m 4.9091294,29.33484 4.2081372,1.630655"
       style="display:inline;fill:none;stroke:#000000;stroke-width:0.743903;stroke-linecap:butt;stroke-linejoin:miter;stroke-miterlimit:4;stroke-dasharray:none;stroke-opacity:1" />
    <path
       style="display:inline;fill:none;stroke:#000000;stroke-width:0.743903;stroke-linecap:butt;stroke-linejoin:miter;stroke-miterlimit:4;stroke-dasharray:none;stroke-opacity:1"
       d="m 5.50468,40.716391 c 0,-25.59439 29.722551,-36.7223845 29.722551,-36.7223845"
       id="path3083" />
    <path
       id="path3021"
       d="m 26.133043,15.832844 2.603653,-1.859753 c 0,0 0.446339,-0.37195 0.799692,0.111586 0.353353,0.483535 -0.130178,0.818291 -0.130178,0.818291 l -2.566458,1.785361 c 0,0 -0.371951,0.37195 -0.706705,-0.03719 -0.334755,-0.409145 0,-0.818291 0,-0.818291 z"
       style="display:inline;fill:#ffffff;fill-opacity:1;stroke:#000000;stroke-width:0.743903;stroke-linecap:butt;stroke-linejoin:miter;stroke-miterlimit:4;stroke-dasharray:none;stroke-opacity:1" />
    <path
       style="display:inline;fill:#ffffff;fill-opacity:1;stroke:#000000;stroke-width:0.743903;stroke-linecap:butt;stroke-linejoin:miter;stroke-miterlimit:4;stroke-dasharray:none;stroke-opacity:1"
       d="m 15.483006,27.191665 1.806101,-2.64115 c 0,0 0.29136,-0.50267 0.789345,-0.16999 0.497984,0.33268 0.158914,0.813199 0.158914,0.813199 l -1.79673,2.558511 c 0,0 -0.221501,0.477109 -0.676458,0.207898 -0.454961,-0.269212 -0.281172,-0.768469 -0.281172,-0.768468 z"
       id="path3023" />
    <path
       id="path3025"
       d="m 10.738862,42.15502 0.06765,-3.198922 c 0,0 -0.03098,-0.580179 0.567876,-0.574 0.598853,0.0062 0.577777,0.593905 0.577777,0.593905 l -0.105001,3.124613 c 0,0 0.07548,0.520567 -0.452637,0.543999 -0.528121,0.02345 -0.655667,-0.489595 -0.655667,-0.489595 z"
       style="display:inline;fill:#ffffff;fill-opacity:1;stroke:#000000;stroke-width:0.743903;stroke-linecap:butt;stroke-linejoin:miter;stroke-miterlimit:4;stroke-dasharray:none;stroke-opacity:1" />
    <path
       style="display:inline;fill:#ffffff;fill-opacity:1;stroke:#000000;stroke-width:0.743903;stroke-linecap:butt;stroke-linejoin:miter;stroke-miterlimit:4;stroke-dasharray:none;stroke-opacity:1"
       d="m 35.377134,0.84324442 c 0,0 32.136504,12.08275258 32.136504,39.87307858 h -4.396905 c 0,0 1.94203,-21.721899 -27.739599,-34.516992 z"
       id="path3241" />
    <path
       style="display:inline;fill:none;stroke:#000000;stroke-width:0.743903;stroke-linecap:butt;stroke-linejoin:miter;stroke-miterlimit:4;stroke-dasharray:none;stroke-opacity:1"
       d="M 48.231461,7.8207385 45.443569,11.660663"
       id="path3243" />
    <path
       style="display:inline;fill:none;stroke:#000000;stroke-width:0.743903;stroke-linecap:butt;stroke-linejoin:miter;stroke-miterlimit:4;stroke-dasharray:none;stroke-opacity:1"
       d="M 58.751803,17.446852 55.22749,20.234745"
       id="path3245" />
    <path
       style="display:inline;fill:none;stroke:#000000;stroke-width:0.743903;stroke-linecap:butt;stroke-linejoin:miter;stroke-miterlimit:4;stroke-dasharray:none;stroke-opacity:1"
       d="m 65.695229,29.33484 -4.208134,1.630655"
       id="path3247" />
    <path
       id="path3249"
       d="m 65.099679,40.716391 c 0,-25.59439 -29.722545,-36.7223845 -29.722545,-36.7223845"
       style="display:inline;fill:none;stroke:#000000;stroke-width:0.743903;stroke-linecap:butt;stroke-linejoin:miter;stroke-miterlimit:4;stroke-dasharray:none;stroke-opacity:1" />
    <path
       style="display:inline;fill:#ffffff;fill-opacity:1;stroke:#000000;stroke-width:0.743903;stroke-linecap:butt;stroke-linejoin:miter;stroke-miterlimit:4;stroke-dasharray:none;stroke-opacity:1"
       d="m 44.47132,15.832844 -2.603651,-1.859753 c 0,0 -0.446342,-0.37195 -0.799692,0.111586 -0.353355,0.483535 0.130178,0.818291 0.130178,0.818291 l 2.566453,1.785361 c 0,0 0.371953,0.37195 0.706707,-0.03719 0.334755,-0.409145 0,-0.818291 0,-0.818291 z"
       id="path3251" />
    <path
       id="path3253"
       d="m 55.121352,27.191665 -1.806098,-2.64115 c 0,0 -0.291359,-0.50267 -0.789343,-0.16999 -0.497984,0.33268 -0.158911,0.813199 -0.158911,0.813199 l 1.796723,2.558511 c 0,0 0.221503,0.477109 0.676458,0.207898 0.454961,-0.269212 0.281176,-0.768469 0.281176,-0.768469 z"
       style="display:inline;fill:#ffffff;fill-opacity:1;stroke:#000000;stroke-width:0.743903;stroke-linecap:butt;stroke-linejoin:miter;stroke-miterlimit:4;stroke-dasharray:none;stroke-opacity:1" />
    <path
       style="display:inline;fill:#ffffff;fill-opacity:1;stroke:#000000;stroke-width:0.743903;stroke-linecap:butt;stroke-linejoin:miter;stroke-miterlimit:4;stroke-dasharray:none;stroke-opacity:1"
       d="m 59.865497,42.15502 -0.06764,-3.198922 c 0,0 0.03099,-0.580179 -0.567874,-0.574 -0.598859,0.0062 -0.577785,0.593905 -0.577785,0.593905 l 0.105007,3.124613 c 0,0 -0.07549,0.520567 0.452638,0.543999 0.528118,0.02345 0.655668,-0.489595 0.655668,-0.489595 z"
       id="path3255" />
  </g>
</svg>
