<?xml version="1.0" encoding="UTF-8" standalone="no"?>
<svg
   xmlns:osb="http://www.openswatchbook.org/uri/2009/osb"
   xmlns:dc="http://purl.org/dc/elements/1.1/"
   xmlns:cc="http://creativecommons.org/ns#"
   xmlns:rdf="http://www.w3.org/1999/02/22-rdf-syntax-ns#"
   xmlns:svg="http://www.w3.org/2000/svg"
   xmlns="http://www.w3.org/2000/svg"
   xmlns:sodipodi="http://sodipodi.sourceforge.net/DTD/sodipodi-0.dtd"
   xmlns:inkscape="http://www.inkscape.org/namespaces/inkscape"
   sodipodi:docname="gothic_arch_middle.svg"
   inkscape:version="1.0 (4035a4fb49, 2020-05-01)"
   id="svg8"
   version="1.1"
   viewBox="0 0 70.643747 59.002087"
   height="223"
   width="267">
  <defs
     id="defs2">
    <linearGradient
       osb:paint="solid"
       id="linearGradient3115">
      <stop
         id="stop3113"
         offset="0"
         style="stop-color:#ffffff;stop-opacity:1;" />
    </linearGradient>
    <filter
       id="filter2923"
       style="color-interpolation-filters:sRGB"
       inkscape:label="Opacity">
      <feColorMatrix
         id="feColorMatrix2919"
         result="colormatrix"
         in="SourceGraphic"
         values="1 0 0 0 0 0 1 0 0 0 0 0 1 0 0 -2.40964 2.3494 -7.46988 5.66265 0 " />
      <feComposite
         id="feComposite2921"
         result="fbSourceGraphic"
         operator="in"
         in2="SourceGraphic"
         in="colormatrix" />
      <feColorMatrix
         id="feColorMatrix2937"
         values="0 0 0 -1 0 0 0 0 -1 0 0 0 0 -1 0 0 0 0 1 0"
         in="fbSourceGraphic"
         result="fbSourceGraphicAlpha" />
      <feColorMatrix
         in="fbSourceGraphic"
         result="colormatrix"
         values="1 0 0 0 0 0 1 0 0 0 0 0 1 0 0 0 0 0 5 -1 "
         id="feColorMatrix2939" />
      <feComposite
         k4="0"
         k3="0"
         k1="0"
         result="composite"
         k2="0.473054"
         operator="arithmetic"
         id="feComposite2941"
         in2="colormatrix" />
    </filter>
  </defs>
  <sodipodi:namedview
     width="200px"
     inkscape:window-maximized="1"
     inkscape:window-y="-8"
     inkscape:window-x="-8"
     inkscape:window-height="1009"
     inkscape:window-width="1920"
     units="px"
     showgrid="true"
     inkscape:document-rotation="0"
     inkscape:current-layer="layer2"
     inkscape:document-units="px"
     inkscape:cy="220.00538"
     inkscape:cx="231.96649"
     inkscape:zoom="1.4142136"
     inkscape:pageshadow="2"
     inkscape:pageopacity="0.0"
     borderopacity="1.0"
     bordercolor="#666666"
     pagecolor="#ffffff"
     id="base">
    <inkscape:grid
       visible="true"
       snapvisiblegridlinesonly="true"
       enabled="false"
       spacingy="0.52916668"
       spacingx="0.52916668"
       originx="0"
       units="px"
       id="grid2927"
       type="xygrid" />
  </sodipodi:namedview>
  <metadata
     id="metadata5">
    <rdf:RDF>
      <cc:Work
         rdf:about="">
        <dc:format>image/svg+xml</dc:format>
        <dc:type
           rdf:resource="http://purl.org/dc/dcmitype/StillImage" />
        <dc:title></dc:title>
      </cc:Work>
    </rdf:RDF>
  </metadata>
  <g
     id="layer1"
     inkscape:groupmode="layer"
     inkscape:label="Warstwa 1" />
  <g
     style="display:inline"
     inkscape:label="3"
     id="layer4"
     inkscape:groupmode="layer" />
  <g
     style="display:inline"
     inkscape:label="2"
     id="layer3"
     inkscape:groupmode="layer" />
  <g
     inkscape:label="1"
     id="layer2"
     inkscape:groupmode="layer">
    <g
       transform="translate(0,-40.344359)"
       id="g1000">
      <path
         style="display:inline;fill:#ffffff;fill-opacity:1;stroke:#000000;stroke-width:0.743903;stroke-linecap:butt;stroke-linejoin:miter;stroke-miterlimit:4;stroke-dasharray:none;stroke-opacity:1"
         d="M 9.0419254,94.277179 V 49.643131 h 0.595121 c 0,0 0.5951206,0 0.5951206,-0.595119 0,-0.595123 -0.5951206,-0.595123 -0.5951206,-0.595123 V 47.85777 c 0,0 0.5951206,0 0.5951206,-0.59512 v -0.595124 c 0,0 0,-1.190238 0.595121,-1.785361 0.59512,-0.595119 1.190241,-0.595119 1.190241,-1.190238 0,-0.595124 -0.595121,-0.595124 -0.595121,-0.595124 h 1.190241 c 0,0 1.190242,0 1.190242,-1.190236 0,-1.190244 -1.190242,-1.190244 -1.190242,-1.190244 H 1.9004793 c 0,0 -1.19024061,0 -1.19024061,1.190244 0,1.190236 1.19024061,1.190236 1.19024061,1.190236 h 1.1902412 c 0,0 -0.5951201,0 -0.5951201,0.595124 0,0.595119 0.5951201,0.595119 1.190241,1.190238 0.5951203,0.595123 0.5951203,1.785361 0.5951203,2.380485 0,0.59512 0.5951206,0.59512 0.5951206,0.59512 v 0.595119 c 0,0 -0.5951206,0 -0.5951206,0.595123 0,0.595119 0.5951206,0.595119 0.5951206,0.595119 H 5.4712029 V 94.277179 H 4.2809617 c 0,0 -0.5951203,0 -0.5951203,0.595119 0,0.595125 0.5951203,0.595125 0.5951203,0.595125 v 1.190236 H 1.9004793 c 0,0 -1.19024061,0 -1.19024061,1.190244 0,1.190243 1.19024061,1.190243 1.19024061,1.190243 H 12.612649 c 0,0 1.190242,0 1.190242,-1.190243 0,-1.190244 -1.190242,-1.190244 -1.190242,-1.190244 h -2.380482 v -1.190236 c 0,0 0.595121,0 0.595121,-0.595125 0,-0.595119 -0.595121,-0.595119 -0.595121,-0.595119 z"
         id="path2929"
         sodipodi:nodetypes="cccsccscssccsccsccsssccsccccscccsccscccscc" />
      <path
         sodipodi:nodetypes="cccsccscssccsccsccsssccsccccscccsccscccscc"
         id="path3257"
         d="M 61.562435,94.277179 V 49.643131 h -0.595118 c 0,0 -0.595125,0 -0.595125,-0.595119 0,-0.595123 0.595125,-0.595123 0.595125,-0.595123 V 47.85777 c 0,0 -0.595125,0 -0.595125,-0.59512 v -0.595124 c 0,0 0,-1.190238 -0.595119,-1.785361 -0.595118,-0.595119 -1.190243,-0.595119 -1.190243,-1.190238 0,-0.595124 0.595125,-0.595124 0.595125,-0.595124 h -1.190243 c 0,0 -1.190244,0 -1.190244,-1.190236 0,-1.190244 1.190244,-1.190244 1.190244,-1.190244 h 10.71217 c 0,0 1.190242,0 1.190242,1.190244 0,1.190236 -1.190242,1.190236 -1.190242,1.190236 h -1.190244 c 0,0 0.595124,0 0.595124,0.595124 0,0.595119 -0.595124,0.595119 -1.190242,1.190238 -0.59512,0.595123 -0.59512,1.785361 -0.59512,2.380485 0,0.59512 -0.595123,0.59512 -0.595123,0.59512 v 0.595119 c 0,0 0.595123,0 0.595123,0.595123 0,0.595119 -0.595123,0.595119 -0.595123,0.595119 H 65.133158 V 94.277179 H 66.3234 c 0,0 0.59512,0 0.59512,0.595119 0,0.595125 -0.59512,0.595125 -0.59512,0.595125 v 1.190236 h 2.380482 c 0,0 1.190242,0 1.190242,1.190244 0,1.190243 -1.190242,1.190243 -1.190242,1.190243 h -10.71217 c 0,0 -1.190244,0 -1.190244,-1.190243 0,-1.190244 1.190244,-1.190244 1.190244,-1.190244 h 2.38048 v -1.190236 c 0,0 -0.595119,0 -0.595119,-0.595125 0,-0.595119 0.595119,-0.595119 0.595119,-0.595119 z"
         style="display:inline;fill:#ffffff;fill-opacity:1;stroke:#000000;stroke-width:0.743903;stroke-linecap:butt;stroke-linejoin:miter;stroke-miterlimit:4;stroke-dasharray:none;stroke-opacity:1" />
      <path
         style="fill:none;stroke:#000000;stroke-width:0.743903;stroke-linecap:butt;stroke-linejoin:miter;stroke-miterlimit:4;stroke-dasharray:none;stroke-opacity:1"
         d="M 4.2809617,96.657659 H 10.232167"
         id="path2945" />
      <path
         style="fill:none;stroke:#000000;stroke-width:0.743903;stroke-linecap:butt;stroke-linejoin:miter;stroke-miterlimit:4;stroke-dasharray:none;stroke-opacity:1"
         d="M 4.2809617,95.467423 H 10.232167"
         id="path2947" />
      <path
         style="fill:none;stroke:#000000;stroke-width:0.743903;stroke-linecap:butt;stroke-linejoin:miter;stroke-miterlimit:4;stroke-dasharray:none;stroke-opacity:1"
         d="M 5.4712029,94.277179 H 9.0419254"
         id="path2949"
         sodipodi:nodetypes="cc" />
      <path
         style="fill:none;stroke:#000000;stroke-width:0.743903;stroke-linecap:butt;stroke-linejoin:miter;stroke-miterlimit:4;stroke-dasharray:none;stroke-opacity:1"
         d="m 5.4712029,79.994288 3.5707225,-6e-6"
         id="path2951"
         sodipodi:nodetypes="cc" />
      <path
         style="fill:none;stroke:#000000;stroke-width:0.743903;stroke-linecap:butt;stroke-linejoin:miter;stroke-miterlimit:4;stroke-dasharray:none;stroke-opacity:1"
         d="m 5.4712029,65.711393 3.5707225,-4e-6"
         id="path2953"
         sodipodi:nodetypes="cc" />
      <path
         style="fill:none;stroke:#000000;stroke-width:0.743903;stroke-linecap:butt;stroke-linejoin:miter;stroke-miterlimit:4;stroke-dasharray:none;stroke-opacity:1"
         d="M 5.4712029,49.643131 H 9.0419254"
         id="path2955"
         sodipodi:nodetypes="cc" />
      <path
         style="fill:none;stroke:#000000;stroke-width:0.743903;stroke-linecap:butt;stroke-linejoin:miter;stroke-miterlimit:4;stroke-dasharray:none;stroke-opacity:1"
         d="M 4.8760823,48.452889 H 9.6370464"
         id="path2957" />
      <path
         style="fill:none;stroke:#000000;stroke-width:0.743903;stroke-linecap:butt;stroke-linejoin:miter;stroke-miterlimit:4;stroke-dasharray:none;stroke-opacity:1"
         d="M 4.8760823,47.85777 H 9.6370464"
         id="path2959" />
      <path
         style="fill:none;stroke:#000000;stroke-width:0.743903;stroke-linecap:butt;stroke-linejoin:miter;stroke-miterlimit:4;stroke-dasharray:none;stroke-opacity:1"
         d="M 3.0907205,43.096803 H 11.422408"
         id="path2961" />
      <path
         style="fill:none;stroke:#000000;stroke-width:0.743903;stroke-linecap:butt;stroke-linejoin:miter;stroke-miterlimit:4;stroke-dasharray:none;stroke-opacity:1"
         d="m 4.8760823,47.85777 c 1.1902409,0 1.1902409,-1.190244 1.1902409,-1.190244 0,0 0,-0.595118 -0.5951203,-1.785361 C 4.8760823,43.691927 3.6858414,43.096803 3.6858414,43.096803"
         id="path2963" />
      <path
         id="path2965"
         d="m 9.6370464,47.85777 c -1.1902412,0 -1.1902412,-1.190244 -1.1902412,-1.190244 0,0 0,-0.595118 0.5951202,-1.785361 0.595121,-1.190238 1.7853626,-1.785362 1.7853626,-1.785362"
         style="fill:none;stroke:#000000;stroke-width:0.743903;stroke-linecap:butt;stroke-linejoin:miter;stroke-miterlimit:4;stroke-dasharray:none;stroke-opacity:1" />
      <path
         style="fill:none;stroke:#000000;stroke-width:0.743903;stroke-linecap:butt;stroke-linejoin:miter;stroke-miterlimit:4;stroke-dasharray:none;stroke-opacity:1"
         d="m 7.2565646,47.85777 c 1.1902406,0 1.1902406,-2.380482 1.1902406,-2.380482 v -1.190242 c 0,0 0,-1.190243 -1.1902406,-1.190243 -1.1902414,0 -1.1902414,1.190243 -1.1902414,1.190243 v 1.190242 c 0,0 0,2.380482 1.1902414,2.380482 z"
         id="path2969" />
      <path
         id="path3259"
         d="M 66.3234,96.657659 H 60.372192"
         style="fill:none;stroke:#000000;stroke-width:0.743903;stroke-linecap:butt;stroke-linejoin:miter;stroke-miterlimit:4;stroke-dasharray:none;stroke-opacity:1" />
      <path
         id="path3261"
         d="M 66.3234,95.467423 H 60.372192"
         style="fill:none;stroke:#000000;stroke-width:0.743903;stroke-linecap:butt;stroke-linejoin:miter;stroke-miterlimit:4;stroke-dasharray:none;stroke-opacity:1" />
      <path
         sodipodi:nodetypes="cc"
         id="path3263"
         d="M 65.133158,94.277179 H 61.562435"
         style="fill:none;stroke:#000000;stroke-width:0.743903;stroke-linecap:butt;stroke-linejoin:miter;stroke-miterlimit:4;stroke-dasharray:none;stroke-opacity:1" />
      <path
         sodipodi:nodetypes="cc"
         id="path3265"
         d="m 65.133158,79.994288 -3.570723,-6e-6"
         style="fill:none;stroke:#000000;stroke-width:0.743903;stroke-linecap:butt;stroke-linejoin:miter;stroke-miterlimit:4;stroke-dasharray:none;stroke-opacity:1" />
      <path
         sodipodi:nodetypes="cc"
         id="path3267"
         d="m 65.133158,65.711393 -3.570723,-4e-6"
         style="fill:none;stroke:#000000;stroke-width:0.743903;stroke-linecap:butt;stroke-linejoin:miter;stroke-miterlimit:4;stroke-dasharray:none;stroke-opacity:1" />
      <path
         sodipodi:nodetypes="cc"
         id="path3269"
         d="M 65.133158,49.643131 H 61.562435"
         style="fill:none;stroke:#000000;stroke-width:0.743903;stroke-linecap:butt;stroke-linejoin:miter;stroke-miterlimit:4;stroke-dasharray:none;stroke-opacity:1" />
      <path
         id="path3271"
         d="m 65.728277,48.452889 h -4.76096"
         style="fill:none;stroke:#000000;stroke-width:0.743903;stroke-linecap:butt;stroke-linejoin:miter;stroke-miterlimit:4;stroke-dasharray:none;stroke-opacity:1" />
      <path
         id="path3273"
         d="m 65.728277,47.85777 h -4.76096"
         style="fill:none;stroke:#000000;stroke-width:0.743903;stroke-linecap:butt;stroke-linejoin:miter;stroke-miterlimit:4;stroke-dasharray:none;stroke-opacity:1" />
      <path
         id="path3275"
         d="M 67.513638,43.096803 H 59.181955"
         style="fill:none;stroke:#000000;stroke-width:0.743903;stroke-linecap:butt;stroke-linejoin:miter;stroke-miterlimit:4;stroke-dasharray:none;stroke-opacity:1" />
      <path
         id="path3277"
         d="m 65.728277,47.85777 c -1.190238,0 -1.190238,-1.190244 -1.190238,-1.190244 0,0 0,-0.595118 0.595119,-1.785361 0.595119,-1.190238 1.785362,-1.785362 1.785362,-1.785362"
         style="fill:none;stroke:#000000;stroke-width:0.743903;stroke-linecap:butt;stroke-linejoin:miter;stroke-miterlimit:4;stroke-dasharray:none;stroke-opacity:1" />
      <path
         style="fill:none;stroke:#000000;stroke-width:0.743903;stroke-linecap:butt;stroke-linejoin:miter;stroke-miterlimit:4;stroke-dasharray:none;stroke-opacity:1"
         d="m 60.967317,47.85777 c 1.190236,0 1.190236,-1.190244 1.190236,-1.190244 0,0 0,-0.595118 -0.595118,-1.785361 -0.595118,-1.190238 -1.785362,-1.785362 -1.785362,-1.785362"
         id="path3279" />
      <path
         id="path3281"
         d="m 63.347797,47.85777 c -1.190244,0 -1.190244,-2.380482 -1.190244,-2.380482 v -1.190242 c 0,0 0,-1.190243 1.190244,-1.190243 1.190242,0 1.190242,1.190243 1.190242,1.190243 v 1.190242 c 0,0 0,2.380482 -1.190242,2.380482 z"
         style="fill:none;stroke:#000000;stroke-width:0.743903;stroke-linecap:butt;stroke-linejoin:miter;stroke-miterlimit:4;stroke-dasharray:none;stroke-opacity:1" />
    </g>
  </g>
</svg>
